<?xml version="1.0" encoding="UTF-8"?>
<svg width="1200pt" height="1200pt" version="1.1" viewBox="0 0 1200 1200" xmlns="http://www.w3.org/2000/svg">
 <path d="m1087.5 201.98c0-36.898-18.074-71.438-48.414-92.477-30.336-21-69.039-25.801-103.57-12.863l-171.68 64.387c-8.6992 3.2617-18.301 3.1875-26.926-0.22656l-245.7-96.711c-26.477-10.426-55.949-10.426-82.426 0-51.148 20.137-161.51 63.562-225 88.574-43.012 16.914-71.289 58.426-71.289 104.66v778.2c0 36.898 18.074 71.438 48.414 92.477 30.336 21 69.039 25.801 103.57 12.863l171.68-64.387c8.6992-3.2617 18.301-3.1875 26.926 0.22656 0 0 245.7 96.711 245.7 96.711 26.477 10.426 55.949 10.426 82.426 0 51.148-20.137 161.51-63.562 225-88.574 43.012-16.914 71.289-58.426 71.289-104.66zm-315.52 641.77-29.738 29.738c-14.625 14.625-14.625 38.398 0 53.023s38.398 14.625 53.023 0l29.738-29.738 29.738 29.738c14.625 14.625 38.398 14.625 53.023 0s14.625-38.398 0-53.023l-29.738-29.738 29.738-29.738c14.625-14.625 14.625-38.398 0-53.023s-38.398-14.625-53.023 0l-29.738 29.738-29.738-29.738c-14.625-14.625-38.398-14.625-53.023 0s-14.625 38.398 0 53.023zm-434.48-343.91v193.91c0 39.789 15.789 77.926 43.949 106.05 28.125 28.164 66.262 43.949 106.05 43.949 82.836 0 150-67.164 150-150v-75c0-41.438 33.562-75 75-75s75 33.562 75 75v75c0 20.699 16.801 37.5 37.5 37.5s37.5-16.801 37.5-37.5v-75c0-82.836-67.164-150-150-150s-150 67.164-150 150v75c0 41.438-33.562 75-75 75-19.875 0-38.961-7.9141-53.023-21.977s-21.977-33.148-21.977-53.023v-193.91c43.688-15.449 75-57.148 75-106.09 0-62.102-50.398-112.5-112.5-112.5s-112.5 50.398-112.5 112.5c0 48.938 31.312 90.637 75 106.09zm37.5-143.59c20.699 0 37.5 16.801 37.5 37.5s-16.801 37.5-37.5 37.5-37.5-16.801-37.5-37.5 16.801-37.5 37.5-37.5z" fill-rule="evenodd"/>
</svg>
